<?xml version="1.0" standalone="no"?>
<!DOCTYPE svg PUBLIC "-//W3C//DTD SVG 20010904//EN"
 "http://www.w3.org/TR/2001/REC-SVG-20010904/DTD/svg10.dtd">
<svg version="1.0" xmlns="http://www.w3.org/2000/svg"
 width="255.000000pt" height="255.000000pt" viewBox="0 0 255.000000 255.000000"
 preserveAspectRatio="xMidYMid meet">
<metadata>
Created by potrace 1.11, written by Peter Selinger 2001-2013
</metadata>
<g transform="translate(0.000000,255.000000) scale(0.100000,-0.100000)"
fill="#000000" stroke="none">
<path d="M0 2542 c0 -5 9 -12 21 -15 13 -3 19 -1 16 6 -5 15 -37 22 -37 9z"/>
<path d="M65 2540 c3 -5 13 -10 20 -10 8 0 19 -9 25 -20 13 -24 30 -18 30 11
0 10 4 19 10 19 5 0 7 -7 3 -16 -8 -20 32 -53 64 -54 24 0 43 -22 24 -28 -8
-3 -3 -15 14 -38 14 -19 23 -39 20 -44 -3 -6 1 -10 9 -10 8 0 15 -8 15 -17 -1
-27 26 -94 34 -86 4 3 7 -1 7 -11 0 -9 8 -20 18 -23 9 -4 23 -13 31 -20 7 -8
23 -13 35 -12 44 3 51 0 31 -15 -20 -15 -31 -56 -14 -56 5 0 8 4 5 9 -3 5 0
11 8 14 11 4 13 -1 10 -18 -5 -30 14 -81 26 -69 16 16 22 74 8 74 -7 0 -5 5 5
11 9 6 14 16 11 22 -5 9 -4 9 6 0 7 -6 13 -23 13 -37 0 -14 3 -27 8 -27 5 -1
14 -2 19 -3 6 0 15 -8 20 -16 7 -11 10 -12 10 -2 0 10 4 9 16 -3 13 -13 19
-14 25 -4 6 10 14 7 32 -13 18 -20 28 -23 36 -15 16 16 14 -6 -4 -29 -21 -28
-18 -40 5 -19 20 18 21 18 14 -1 -4 -10 -15 -26 -26 -34 -12 -11 -17 -22 -12
-34 4 -10 9 -13 13 -7 4 6 12 6 21 1 12 -7 12 -13 0 -37 -7 -15 -16 -53 -19
-83 -5 -44 -9 -55 -23 -54 -10 1 -18 -5 -18 -14 0 -19 -49 -72 -66 -72 -7 0
-30 -20 -51 -45 -20 -25 -43 -45 -50 -45 -7 0 -13 -5 -13 -12 0 -7 -15 -27
-32 -46 -19 -19 -26 -30 -16 -27 10 4 18 12 18 19 0 7 3 6 9 -2 5 -8 1 -33 -8
-60 -20 -59 -20 -59 -32 -42 -8 11 -9 9 -4 -10 6 -24 5 -24 -9 -6 -17 21 -22
66 -7 66 14 0 1 38 -14 44 -9 3 -12 0 -9 -8 5 -14 -71 -83 -87 -79 -5 2 -9 -3
-9 -11 0 -7 -9 -25 -20 -39 -14 -17 -16 -27 -8 -29 9 -3 8 -16 -2 -54 -15 -52
-17 -58 -19 -75 0 -6 -8 -9 -16 -5 -10 3 -15 -1 -16 -12 0 -14 -2 -14 -9 3
-12 27 -12 57 -1 51 10 -7 26 52 17 61 -3 4 -6 -2 -6 -13 -1 -18 -1 -18 -11
-1 -5 9 -15 17 -20 17 -6 0 -8 -4 -5 -8 3 -5 -10 -23 -29 -40 -19 -16 -35 -38
-35 -47 0 -14 4 -13 19 6 25 31 39 17 22 -24 -22 -55 -25 -71 -13 -63 8 5 12
-2 11 -21 -1 -18 -3 -22 -6 -10 -3 10 -11 16 -18 13 -18 -6 -37 17 -29 37 7
19 -23 67 -42 67 -26 0 14 46 72 85 30 20 54 41 54 46 0 6 -5 7 -11 3 -7 -4
-10 -1 -7 6 2 8 14 14 26 15 18 1 20 -1 10 -14 -10 -14 -10 -14 2 -3 20 17 21
90 2 97 -12 4 -13 3 -2 -10 16 -19 -3 -20 -22 -2 -7 8 -24 19 -36 26 -20 11
-26 10 -41 -8 -11 -13 -16 -30 -13 -46 2 -15 0 -25 -7 -25 -16 0 -5 71 12 82
8 5 6 8 -6 8 -10 0 -17 6 -15 14 2 7 -6 22 -17 32 -12 11 -15 15 -8 10 19 -12
16 0 -4 20 -13 13 -14 16 -3 12 8 -3 22 -2 31 3 13 6 16 4 15 -9 0 -10 6 -16
17 -16 9 1 17 -5 17 -13 0 -8 -5 -11 -10 -8 -16 10 -11 -4 9 -27 l20 -21 -4
32 c-2 17 0 31 5 31 17 0 11 25 -10 43 -12 10 -18 23 -14 30 6 9 4 9 -7 1 -11
-10 -17 -5 -30 22 -9 18 -13 31 -8 29 4 -3 9 0 11 7 3 7 10 8 17 4 11 -7 11
-10 0 -17 -11 -7 -11 -9 1 -9 14 0 70 -61 70 -76 0 -4 8 -13 18 -21 16 -13 15
-14 -5 -8 -18 5 -22 3 -17 -9 4 -11 2 -15 -8 -11 -9 4 -14 -2 -14 -15 0 -15 5
-18 18 -14 10 3 18 1 18 -4 0 -9 42 -8 58 2 10 6 9 -44 -1 -61 -16 -26 17 -23
39 3 24 30 32 64 14 64 -11 0 -14 43 -3 53 3 4 11 3 17 -2 6 -4 29 -11 52 -15
35 -5 47 -2 77 22 41 30 44 37 21 46 -12 4 -15 2 -10 -9 6 -16 -2 -19 -20 -7
-6 4 -11 18 -10 32 1 16 -4 25 -14 25 -8 0 -21 4 -28 9 -7 4 -16 5 -20 1 -4
-3 1 -11 11 -16 9 -6 17 -15 17 -22 0 -7 -4 -6 -10 3 -6 10 -10 11 -10 3 0 -7
-5 -13 -11 -13 -5 0 -7 5 -4 10 3 6 1 10 -4 10 -6 0 -11 -5 -11 -10 0 -6 -8
-5 -19 2 -15 9 -23 9 -34 0 -12 -10 -17 -6 -30 27 -11 25 -26 43 -45 52 -25
11 -30 19 -30 48 0 20 -4 37 -10 39 -5 1 -7 18 -5 37 2 18 -1 37 -7 40 -8 5
-7 11 1 21 9 12 6 14 -21 14 -24 0 -31 4 -27 14 3 8 0 16 -7 19 -6 3 -13 -4
-13 -14 -1 -12 7 -21 23 -25 13 -3 21 -10 18 -15 -3 -5 -9 -7 -14 -4 -15 9
-19 -23 -4 -36 8 -7 13 -18 10 -26 -3 -7 6 -24 19 -37 13 -13 21 -26 18 -29
-3 -4 -12 1 -20 9 -8 8 -19 11 -24 8 -11 -7 19 -33 39 -34 20 0 14 -16 -7 -17
-11 -1 -22 5 -25 13 -6 16 -36 19 -36 4 0 -5 -9 -10 -20 -10 -11 0 -20 5 -20
10 0 6 9 10 19 10 10 0 21 7 25 15 7 18 -5 20 -22 3 -9 -9 -12 -6 -12 14 0 43
-18 41 -25 -2 -5 -27 -3 -46 5 -55 9 -11 9 -15 1 -15 -8 0 -11 -71 -10 -245 0
-235 1 -245 20 -245 25 0 24 -21 -2 -54 -11 -14 -16 -26 -10 -26 6 0 11 -11
11 -25 0 -14 5 -25 11 -25 5 0 8 4 4 9 -3 5 0 13 6 16 6 4 8 18 4 34 -4 18 -3
23 4 16 6 -6 13 -26 16 -45 4 -24 3 -29 -3 -16 -8 19 -9 19 -15 -3 -6 -26 0
-51 14 -51 5 0 9 -9 9 -20 0 -11 5 -20 10 -20 6 0 10 -4 10 -10 0 -5 -7 -7
-15 -4 -11 5 -14 0 -11 -17 2 -18 9 -23 25 -22 16 2 20 -2 18 -20 -1 -16 4
-23 22 -25 19 -3 23 0 17 15 -4 13 -1 12 14 -6 11 -13 22 -22 23 -20 2 2 13
17 25 33 12 15 19 33 15 40 -3 6 -2 8 2 3 5 -4 26 9 46 29 37 36 42 63 10 65
-10 0 -12 2 -3 6 7 3 18 0 25 -5 9 -8 23 -1 50 24 20 19 37 37 37 38 0 3 -61
1 -83 -3 -11 -2 -97 -93 -97 -103 0 -5 5 -6 12 -2 7 4 8 3 4 -4 -4 -6 -14 -8
-23 -5 -12 5 -15 2 -11 -9 4 -8 2 -21 -3 -29 -6 -10 -9 -11 -9 -1 0 10 -3 10
-14 0 -8 -7 -12 -16 -10 -20 2 -3 -2 -5 -10 -4 -24 3 -45 33 -52 74 -6 37 -5
40 14 36 15 -5 24 4 42 40 12 25 26 46 32 46 10 0 7 -37 -7 -72 -4 -11 -3 -18
4 -18 6 0 11 5 11 11 0 6 7 8 17 5 20 -8 57 29 49 50 -3 7 -10 14 -15 14 -5 0
-7 9 -4 20 3 11 10 20 15 20 6 0 5 7 -2 15 -9 10 -9 15 -1 15 6 0 11 7 11 15
0 8 -4 15 -10 15 -5 0 -10 5 -10 11 0 8 5 7 16 -2 13 -10 17 -10 25 2 8 11 9
10 7 -5 -2 -10 3 -21 10 -23 7 -3 12 -1 11 4 -1 4 -1 19 0 33 1 19 3 22 10 10
6 -8 7 -18 4 -23 -3 -5 0 -7 8 -5 8 3 13 13 13 22 -1 9 1 16 5 16 4 0 7 9 8
21 2 23 20 49 35 49 6 0 7 -12 3 -27 -20 -84 -20 -80 1 -61 13 11 24 14 34 8
12 -7 9 -13 -13 -30 -15 -12 -27 -29 -27 -37 0 -9 -7 -21 -17 -28 -13 -9 -13
-14 -3 -20 8 -5 11 -4 7 2 -8 13 17 25 36 17 7 -2 23 6 36 20 22 23 22 25 6
56 -16 30 -15 32 4 49 24 21 27 33 7 25 -9 -3 -16 4 -20 21 -4 14 -11 23 -16
20 -6 -3 -6 -15 0 -31 12 -32 13 -44 1 -44 -15 0 -23 54 -12 81 5 13 10 21 10
16 1 -4 17 10 38 30 l36 38 -7 -45 c-4 -24 -12 -50 -18 -57 -8 -10 -6 -13 11
-13 11 0 21 5 21 10 0 6 9 10 20 10 24 0 26 13 5 30 -8 7 -15 24 -15 39 0 23
2 22 18 -14 13 -27 21 -35 26 -26 5 7 4 17 -2 23 -5 5 -7 27 -5 49 4 25 2 39
-5 39 -6 0 -9 8 -6 18 5 15 4 15 -10 -2 -8 -10 -19 -15 -25 -11 -7 3 -8 0 -5
-9 3 -9 1 -16 -5 -16 -10 0 -14 15 -13 53 0 21 14 57 22 57 5 0 11 9 15 19 3
11 13 22 21 25 13 5 15 0 12 -26 -3 -18 -8 -40 -12 -49 -8 -19 31 -34 49 -19
15 12 51 -29 47 -52 -2 -10 1 -18 7 -18 6 0 8 -7 5 -15 -4 -8 -2 -15 4 -15 6
0 24 -30 41 -66 17 -36 41 -79 53 -96 12 -18 17 -28 10 -24 -23 14 -12 -24 12
-39 15 -10 26 -29 30 -55 3 -22 26 -79 51 -127 42 -81 45 -93 45 -163 0 -73
-1 -76 -29 -93 -16 -9 -41 -32 -56 -49 -24 -28 -75 -64 -75 -53 0 2 14 21 32
42 l32 38 -42 -40 c-24 -22 -45 -50 -48 -62 -4 -13 -10 -21 -14 -18 -4 3 -16
-17 -26 -44 -10 -28 -27 -54 -38 -60 -15 -7 -17 -10 -6 -11 8 -1 4 -5 -10 -9
-14 -4 -24 -13 -22 -19 1 -7 -2 -12 -8 -12 -5 0 -7 -6 -4 -14 7 -17 -56 -32
-67 -15 -5 8 -8 8 -13 0 -4 -6 -2 -11 5 -11 9 0 9 -4 -1 -15 -6 -8 -9 -19 -5
-25 9 -15 -23 -24 -39 -11 -11 9 -15 7 -19 -8 -3 -14 -17 -20 -53 -25 -104
-12 -119 -15 -122 -25 -2 -6 -15 -11 -28 -11 -14 0 -23 -5 -22 -12 2 -7 -5
-12 -14 -10 -10 2 -18 -3 -18 -10 0 -9 -3 -9 -12 0 -17 17 -28 15 -21 -6 5
-14 3 -15 -8 -4 -17 16 -49 16 -49 0 0 -10 -3 -9 -9 1 -5 7 -14 10 -20 7 -12
-8 -14 5 -13 66 1 46 -12 49 -27 7 -13 -39 -14 -42 -1 -34 17 10 11 -11 -10
-38 -20 -25 -20 -25 0 -89 10 -34 24 -87 30 -115 l12 -53 730 0 c645 0 729 2
724 15 -3 8 -1 15 4 15 6 0 10 -8 10 -17 1 -17 2 -17 15 1 7 10 19 15 25 11 7
-5 7 0 -1 14 -10 15 -16 17 -22 8 -6 -8 -7 -5 -3 7 4 11 1 23 -6 29 -9 6 -8 7
4 3 23 -7 32 9 13 24 -8 7 -15 9 -15 4 0 -5 -28 -10 -63 -11 -34 0 -56 1 -49
4 6 3 10 8 7 13 -3 4 3 6 14 3 20 -5 87 24 77 34 -3 3 2 12 12 20 15 13 15 13
-5 4 -34 -17 -50 -13 -23 6 14 9 29 23 33 30 5 7 28 23 53 34 56 27 140 110
147 146 7 38 1 41 -27 14 -15 -14 -30 -20 -37 -16 -8 6 -10 4 -5 -4 9 -14 -24
-42 -38 -34 -5 4 -6 1 -3 -4 7 -12 -82 -75 -135 -97 -18 -7 -55 -16 -81 -20
l-48 -6 18 30 c9 17 23 30 30 30 7 0 13 7 13 15 0 8 4 15 9 15 5 0 12 9 16 19
4 13 12 18 22 14 11 -4 14 -2 9 5 -4 7 -2 12 4 12 7 0 10 7 6 15 -3 9 0 15 10
15 9 0 12 5 8 11 -3 6 0 15 7 20 11 7 10 9 -4 9 -10 0 -16 4 -13 9 10 16 -18
18 -41 3 -13 -8 -23 -10 -23 -4 0 5 10 16 22 24 20 13 21 18 9 32 -11 13 -11
17 2 22 9 3 18 12 21 21 4 11 2 13 -9 9 -8 -3 -15 -1 -15 5 0 6 9 13 19 16 12
3 17 11 14 19 -3 8 5 18 21 25 14 7 29 24 34 38 6 14 14 35 18 46 7 18 6 19
-11 5 -16 -13 -16 -10 4 22 12 21 19 43 15 50 -5 8 -2 9 10 5 14 -6 15 -3 6
14 -9 16 -6 26 17 54 15 18 31 34 35 34 3 1 8 -32 11 -71 6 -97 7 -99 55 -152
23 -25 42 -53 42 -62 0 -10 3 -14 6 -11 13 12 -19 68 -55 97 -47 40 -25 39 25
-1 63 -50 403 -248 455 -264 11 -4 30 0 44 9 27 18 40 7 30 -25 -5 -14 -2 -25
6 -30 20 -13 37 -11 19 2 -11 8 -7 9 19 5 18 -3 43 -6 55 -6 13 0 16 -3 9 -8
-6 -4 11 -8 39 -9 51 -1 61 -8 90 -63 7 -14 19 -31 26 -39 7 -7 10 -23 7 -35
-5 -17 -4 -18 4 -6 6 8 11 23 11 32 0 25 -129 214 -143 210 -7 -2 2 8 18 22
36 30 42 31 49 9 3 -10 16 -30 28 -45 13 -14 29 -35 36 -45 12 -17 13 -17 9 2
-3 11 -8 29 -13 39 -5 14 -4 17 4 12 9 -5 12 69 12 306 l-1 313 -87 -90 c-82
-85 -96 -89 -18 -5 40 43 49 65 14 34 -13 -11 -36 -29 -53 -39 l-30 -19 32 37
c52 60 99 97 122 97 29 0 26 18 -4 26 -31 8 -31 8 0 48 22 29 25 43 25 113 l0
80 -57 7 c-32 4 -154 19 -271 35 -147 19 -215 24 -217 17 -19 -72 -37 -111
-79 -166 -27 -36 -55 -69 -62 -73 -8 -4 -14 -14 -14 -22 0 -24 -30 -45 -66
-45 -24 0 -34 5 -34 15 0 30 -16 13 -44 -48 -36 -78 -69 -123 -95 -130 -14 -3
-18 -1 -14 10 5 13 2 13 -15 4 -17 -9 -22 -9 -22 0 0 7 -3 10 -6 6 -9 -9 -36
21 -29 33 3 5 -1 10 -9 10 -8 0 -19 6 -23 13 -19 31 -67 58 -93 52 -14 -3 -46
2 -70 11 -25 9 -70 17 -101 18 -63 2 -97 20 -78 43 12 14 49 9 60 -9 8 -12 14
-2 22 33 6 24 10 26 51 22 41 -5 86 9 86 25 0 11 -96 62 -116 62 -11 0 -40 8
-67 17 -45 16 -49 16 -78 -1 -48 -28 -60 -5 -18 33 18 17 37 31 41 31 5 0 8 5
8 11 0 5 -6 7 -12 3 -7 -4 -4 4 8 17 11 13 28 36 37 51 10 15 28 35 42 44 34
22 44 12 96 -92 36 -71 46 -83 66 -82 28 3 28 2 1 29 -16 15 -18 20 -7 16 48
-17 145 -29 199 -25 78 6 109 29 135 99 27 72 32 79 60 79 16 0 22 5 21 17 -3
21 -115 56 -239 74 -73 11 -78 13 -48 20 19 4 41 5 49 1 10 -3 13 -1 8 6 -5 8
3 10 26 7 28 -5 29 -4 8 4 -53 18 -131 33 -167 30 -21 -1 -54 5 -73 13 -36 16
-60 9 -60 -18 0 -23 -21 -26 -39 -5 -10 12 -27 21 -37 21 -11 0 -34 9 -51 20
-18 11 -33 16 -33 12 0 -11 -81 -13 -115 -3 -53 16 -96 21 -90 11 3 -6 2 -10
-4 -10 -5 0 -13 5 -16 10 -3 6 -2 10 3 10 4 0 16 16 25 35 9 20 28 40 42 45
14 5 25 14 25 20 0 21 20 9 21 -12 l1 -23 6 23 c4 13 12 24 17 25 6 1 9 5 8 8
-1 4 21 4 50 2 29 -2 61 -4 72 -3 80 2 85 3 75 16 -6 6 -9 18 -8 25 4 17 43
50 66 54 9 2 18 4 20 5 3 3 11 5 54 14 21 5 42 14 49 22 14 17 33 19 23 3 -5
-8 1 -10 19 -5 14 3 29 2 32 -4 3 -5 20 -10 36 -10 22 0 28 -4 23 -12 -6 -9
-3 -9 9 0 11 9 21 11 33 4 11 -6 13 -11 5 -16 -13 -8 9 -36 28 -36 6 0 16 -9
23 -19 6 -10 17 -17 24 -14 6 2 24 -6 38 -19 26 -22 27 -28 29 -123 1 -55 6
-103 10 -106 4 -3 9 -19 10 -35 1 -16 12 -39 25 -51 25 -25 29 -43 8 -43 -17
0 -26 -41 -32 -150 -4 -82 -1 -86 22 -25 7 19 8 19 11 -2 3 -13 8 -23 13 -23
14 0 21 -33 8 -42 -10 -6 -9 -8 3 -8 41 0 67 83 34 110 -8 7 -15 17 -15 23 0
12 31 36 48 37 21 0 64 -52 59 -72 -7 -27 1 -22 18 12 19 37 20 104 0 120 -14
12 -29 11 -67 -5 -28 -11 -21 10 7 23 19 9 51 8 137 -4 61 -9 122 -14 135 -11
13 2 23 1 23 -3 0 -4 6 -7 13 -7 6 0 40 -4 75 -8 46 -6 62 -4 62 4 0 9 5 8 14
-2 8 -8 45 -18 82 -22 37 -4 73 -9 81 -12 10 -4 12 24 12 137 l-2 142 -26 -7
c-14 -4 -28 -7 -31 -8 -16 -3 -169 16 -180 23 -21 13 -3 27 30 22 19 -3 30 0
28 7 -4 14 73 61 86 53 6 -3 24 -7 41 -9 16 -2 32 -8 33 -13 2 -6 8 -10 13
-10 15 0 10 190 -6 235 -18 49 -18 45 0 45 8 0 15 7 15 16 0 13 -3 14 -13 5
-20 -16 -27 -3 -16 26 5 14 7 28 4 31 -3 3 -5 0 -5 -6 0 -7 -5 -12 -11 -12 -5
0 -7 5 -4 10 6 9 0 11 -22 9 -5 0 -7 -6 -5 -14 4 -19 -58 -31 -69 -14 -5 8 -9
10 -9 5 0 -5 -8 -2 -17 5 -10 8 -14 9 -10 2 9 -14 -9 -27 -24 -17 -8 4 -7 9 2
15 12 7 12 9 0 9 -10 0 -11 3 -2 13 6 8 8 17 5 20 -4 3 5 9 20 13 30 7 29 5
16 38 -6 16 -16 24 -28 23 -12 -1 -18 -6 -15 -14 4 -10 9 -11 18 -3 11 9 12 7
8 -10 l-6 -22 -20 21 c-19 19 -21 19 -34 3 -12 -16 -13 -15 -6 2 4 13 3 17 -5
12 -7 -4 -12 -2 -12 4 0 7 -6 10 -13 7 -6 -2 -11 -11 -9 -18 2 -8 0 -11 -4 -7
-4 4 -14 2 -22 -5 -13 -10 -14 -9 -8 1 5 8 -2 22 -17 38 -15 15 -28 21 -32 14
-3 -5 -1 -10 6 -10 7 0 9 -3 5 -7 -4 -5 -13 -1 -19 7 -12 14 -37 25 -37 15 0
-2 12 -15 27 -29 l27 -25 -37 6 c-33 5 -37 3 -37 -15 0 -11 -4 -24 -10 -27 -6
-3 -10 3 -10 14 0 27 -15 34 -33 16 -21 -20 -23 -19 -22 13 0 25 -2 27 -40 25
-28 -1 -35 1 -25 7 13 8 13 10 -1 10 -25 0 -11 49 17 62 22 10 24 28 3 28 -6
0 -8 -4 -5 -9 3 -4 -24 -11 -60 -15 -57 -6 -68 -4 -82 12 -20 22 -52 35 -52
21 0 -6 -13 -8 -32 -4 -18 4 -48 6 -65 5 -24 0 -33 4 -33 16 0 11 6 15 20 11
24 -6 38 11 16 19 -9 3 -13 10 -10 15 6 11 -21 41 -30 32 -10 -10 -7 -25 4
-18 5 3 10 2 10 -3 0 -6 -7 -12 -15 -16 -11 -4 -16 5 -21 35 -5 28 -10 36 -15
27 -7 -10 -9 -9 -9 5 0 9 -5 17 -11 17 -6 0 -9 -9 -6 -19 4 -17 -1 -19 -48
-18 -57 2 -87 19 -79 45 5 14 2 13 -10 -2 -10 -12 -16 -15 -16 -7 0 7 -6 11
-14 8 -8 -3 -17 1 -20 9 -3 8 -12 14 -21 14 -8 0 -15 5 -15 10 0 6 5 10 12 10
6 0 9 2 6 5 -3 3 -19 2 -36 -1 -22 -4 -32 -12 -32 -24 0 -17 -28 -36 -38 -25
-3 3 -1 5 5 5 15 0 23 38 9 43 -6 2 -105 5 -220 6 -164 2 -211 0 -217 -11 -7
-10 -9 -10 -9 0 0 9 -87 12 -401 12 -264 0 -398 -3 -394 -10z m1145 -54 c0
-11 -19 -15 -25 -6 -3 5 1 10 9 10 9 0 16 -2 16 -4z m-535 -66 c10 -11 14 -20
9 -20 -5 0 -15 9 -22 20 -7 11 -11 20 -9 20 2 0 12 -9 22 -20z m946 -3 c-10
-9 -11 -8 -5 6 3 10 9 15 12 12 3 -3 0 -11 -7 -18z m-353 -2 c-7 -7 -108 -24
-108 -18 0 2 10 8 23 13 24 9 94 13 85 5z m72 -5 c8 -5 11 -10 5 -10 -5 0 -17
5 -25 10 -8 5 -10 10 -5 10 6 0 17 -5 25 -10z m434 -78 c2 -4 -7 -8 -22 -9
-24 -2 -24 -1 -7 7 11 5 21 9 22 9 1 1 4 -3 7 -7z m76 -32 c0 -5 -7 -7 -15 -4
-8 4 -12 10 -9 15 6 11 24 2 24 -11z m65 -10 c3 -5 1 -10 -4 -10 -6 0 -11 5
-11 10 0 6 2 10 4 10 3 0 8 -4 11 -10z m-1384 -53 c-8 -11 -6 -18 9 -32 11
-10 20 -24 20 -32 0 -8 -7 -6 -21 8 -16 16 -23 18 -29 9 -5 -8 -9 -3 -12 14
-3 14 -1 23 4 20 4 -3 11 2 14 10 3 9 11 16 16 16 7 0 6 -5 -1 -13z m1424 -17
c3 -5 1 -10 -4 -10 -6 0 -11 5 -11 10 0 6 2 10 4 10 3 0 8 -4 11 -10z m265
-30 c0 -5 -5 -10 -11 -10 -5 0 -7 5 -4 10 3 6 8 10 11 10 2 0 4 -4 4 -10z
m-110 -49 c0 -6 -4 -13 -10 -16 -5 -3 -10 1 -10 9 0 9 5 16 10 16 6 0 10 -4
10 -9z m-1551 -45 c-9 -8 -10 -8 -5 1 3 6 1 15 -5 19 -8 4 -7 9 2 15 18 11 25
-19 8 -35z m1510 -140 c-9 -8 -10 -7 -5 7 3 10 7 24 7 30 1 7 3 4 6 -7 3 -10
-1 -23 -8 -30z m251 -119 c0 -19 -20 -36 -36 -30 -8 3 -11 9 -8 14 3 5 10 7
15 4 5 -4 9 1 9 9 0 9 5 16 10 16 6 0 10 -6 10 -13z m170 -7 c0 -5 -8 -10 -17
-10 -15 0 -16 2 -3 10 19 12 20 12 20 0z m-50 -4 c0 -3 -4 -8 -10 -11 -5 -3
-10 -1 -10 4 0 6 5 11 10 11 6 0 10 -2 10 -4z m-56 -27 c-28 -11 -44 -10 -44
2 0 6 7 9 15 6 8 -4 17 -2 20 4 4 5 11 6 18 2 7 -4 4 -9 -9 -14z m-189 -38
c49 -2 49 -2 24 -16 -20 -11 -41 -12 -99 -4 -92 11 -114 28 -34 25 33 -2 82
-4 109 -5z m-90 -41 c-3 -5 -14 -10 -23 -9 -14 0 -13 2 3 9 27 11 27 11 20 0z
m-65 -31 c0 -5 5 -7 10 -4 6 3 10 2 10 -4 0 -5 3 -18 7 -28 4 -12 -2 -9 -20
10 -29 30 -32 37 -17 37 6 0 10 -5 10 -11z m130 -30 c-39 -33 -46 -35 -54 -14
-3 10 1 18 12 21 9 3 28 12 42 19 38 21 39 6 0 -26z m293 22 c9 0 17 -6 17
-11 0 -13 -68 -6 -82 8 -8 8 -3 10 18 8 16 -2 37 -4 47 -5z m-110 -36 c40 -48
18 -52 -28 -5 -32 33 -35 40 -20 39 11 0 33 -16 48 -34z m-1717 -18 l-7 -43
38 3 c21 1 29 0 18 -4 -11 -3 -25 -9 -31 -14 -14 -11 -55 -3 -66 13 -12 19 -9
35 3 18 9 -12 10 -11 6 8 -3 12 -2 20 2 17 5 -2 13 7 19 20 17 38 25 30 18
-18z m-461 23 c3 -6 -1 -7 -9 -4 -18 7 -21 14 -7 14 6 0 13 -4 16 -10z m2035
-20 c12 -8 11 -10 -7 -10 -13 0 -23 5 -23 10 0 13 11 13 30 0z m-1183 -6 c13
-4 21 -10 18 -14 -5 -7 -94 5 -103 15 -7 7 58 6 85 -1z m1408 -4 c-3 -5 -12
-10 -18 -10 -7 0 -6 4 3 10 19 12 23 12 15 0z m-2045 -16 c0 -8 -4 -12 -10 -9
-5 3 -10 10 -10 16 0 5 5 9 10 9 6 0 10 -7 10 -16z m1857 -13 c-6 -30 12 -58
29 -43 4 4 2 -1 -5 -10 -17 -23 -17 -23 -35 13 -11 23 -13 36 -5 50 15 28 22
23 16 -10z m258 19 c-3 -5 -13 -10 -21 -10 -8 0 -14 5 -14 10 0 6 9 10 21 10
11 0 17 -4 14 -10z m-2325 -10 c0 -5 -2 -10 -4 -10 -3 0 -8 5 -11 10 -3 6 -1
10 4 10 6 0 11 -4 11 -10z m2030 -18 c0 -10 5 -23 12 -30 9 -9 9 -12 1 -12 -7
0 -15 5 -19 12 -5 8 -10 6 -15 -8 -4 -13 -6 -7 -6 19 1 37 27 56 27 19z m78 4
c-7 -8 -15 -12 -17 -11 -5 6 10 25 20 25 5 0 4 -6 -3 -14z m-643 -25 l50 -16
-1 -50 c0 -57 -27 -120 -58 -137 -26 -15 -158 -14 -217 2 -63 17 -89 44 -89
93 0 38 1 39 18 24 10 -10 22 -17 26 -17 5 0 21 -11 38 -25 21 -18 41 -25 71
-25 37 0 39 1 22 13 -16 13 -14 15 26 20 28 4 50 14 62 28 10 13 28 24 40 26
29 5 30 8 15 32 -7 12 -23 21 -35 21 -12 0 -25 5 -28 10 -3 6 -14 10 -23 10
-10 -1 -3 -9 18 -21 38 -22 33 -21 -48 5 -29 10 -49 22 -46 28 8 12 92 2 159
-21z m519 -22 c14 -23 25 -44 23 -46 -5 -4 -67 71 -67 81 0 17 19 1 44 -35z
m-1774 21 c0 -5 -4 -10 -10 -10 -5 0 -10 5 -10 10 0 6 5 10 10 10 6 0 10 -4
10 -10z m2053 -39 c-8 -10 -35 28 -28 39 5 8 11 4 19 -12 7 -12 11 -25 9 -27z
m-2233 35 c0 -3 -4 -8 -10 -11 -5 -3 -10 -1 -10 4 0 6 5 11 10 11 6 0 10 -2
10 -4z m1064 -21 c3 -9 0 -15 -9 -15 -8 0 -18 -1 -22 -2 -3 -2 -7 5 -9 15 -3
21 31 24 40 2z m-428 -61 c13 -3 28 -13 32 -20 12 -22 137 -34 162 -17 11 8
25 11 32 7 6 -4 8 -3 4 4 -10 17 10 23 24 7 7 -8 17 -12 24 -9 6 4 1 -4 -12
-17 -21 -22 -31 -24 -115 -24 -98 0 -162 16 -176 43 -5 9 -11 33 -15 52 -5 33
-5 33 5 7 6 -15 21 -30 35 -33z m1464 46 c-8 -5 -19 -10 -25 -10 -5 0 -3 5 5
10 8 5 20 10 25 10 6 0 3 -5 -5 -10z m-1455 -19 c3 -5 1 -12 -5 -16 -5 -3 -10
1 -10 9 0 18 6 21 15 7z m-51 -66 l17 -30 -20 24 c-12 13 -21 28 -21 34 0 12
0 11 24 -28z m-445 -27 c0 -7 -10 -39 -22 -70 l-22 -57 -25 19 c-14 11 -19 20
-11 20 7 0 11 6 7 15 -3 8 -3 22 1 31 5 13 7 13 14 2 7 -10 9 -8 9 6 0 10 8
25 18 32 22 17 32 17 31 2z m631 -28 c41 -4 67 -8 57 -9 -24 -1 -59 -43 -44
-53 8 -5 -4 -26 -25 -41 -2 -1 -14 6 -28 16 -28 19 -40 22 -40 7 0 -5 6 -10
14 -10 7 0 20 -7 27 -17 13 -15 12 -15 -16 -1 -18 10 -38 32 -48 57 -11 24
-26 41 -35 42 -11 0 -13 2 -4 6 7 3 18 1 25 -4 7 -4 4 0 -8 11 -20 18 -20 18
15 11 19 -4 69 -11 110 -15z m-881 -44 c9 -10 8 -15 -2 -19 -8 -3 -13 3 -13
14 0 23 0 23 15 5z m771 -6 c0 -5 -4 -10 -10 -10 -5 0 -10 5 -10 10 0 6 5 10
10 10 6 0 10 -4 10 -10z m-813 -32 c-3 -8 -6 -5 -6 6 -1 11 2 17 5 13 3 -3 4
-12 1 -19z m-22 -28 c3 -5 1 -10 -4 -10 -6 0 -11 5 -11 10 0 6 2 10 4 10 3 0
8 -4 11 -10z m2005 -15 c14 9 52 -4 44 -16 -3 -5 -10 -7 -15 -4 -5 4 -9 -3 -9
-14 0 -17 6 -21 34 -21 19 0 41 -7 50 -15 8 -8 19 -15 24 -15 5 0 16 -8 23
-17 13 -16 12 -17 -4 -4 -15 12 -17 12 -12 -1 7 -19 -20 -44 -30 -28 -5 8 -13
6 -26 -6 -11 -10 -19 -12 -19 -5 0 7 -10 10 -27 7 -27 -5 -27 -4 -9 9 11 8 23
15 28 15 4 0 8 12 8 26 0 22 -2 24 -14 14 -8 -6 -13 -17 -10 -24 5 -14 -34
-35 -53 -29 -7 2 -9 12 -6 21 4 14 3 14 -5 3 -6 -8 -8 -20 -5 -28 3 -7 0 -13
-6 -13 -6 0 -11 7 -11 15 0 8 -5 15 -12 15 -6 0 -3 8 8 19 10 10 22 17 27 14
11 -6 8 15 -3 22 -6 3 -13 -1 -16 -9 -3 -9 -12 -16 -20 -16 -8 0 -14 -4 -14
-8 0 -11 -37 -9 -47 3 -5 4 -2 5 5 1 9 -6 12 -2 10 10 -2 11 -9 21 -16 24 -8
4 5 15 32 28 25 13 48 28 52 33 4 6 11 6 19 -1 8 -7 19 -9 25 -5z m97 -8 c0
-7 -9 -14 -19 -14 -16 -2 -17 1 -8 13 15 18 27 18 27 1z m238 -57 c3 -5 1 -10
-4 -10 -6 0 -11 5 -11 10 0 6 2 10 4 10 3 0 8 -4 11 -10z m35 0 c0 -5 -4 -10
-10 -10 -5 0 -10 5 -10 10 0 6 5 10 10 10 6 0 10 -4 10 -10z m-27 -34 c4 -10
1 -13 -8 -9 -8 3 -12 9 -9 14 7 12 11 11 17 -5z m-139 -21 c-4 -8 -10 -15 -16
-15 -5 0 -7 4 -4 9 4 5 0 12 -6 14 -7 3 -3 6 9 6 16 1 21 -3 17 -14z m-2029
-55 c7 -24 7 -24 -9 -5 -8 11 -16 27 -16 35 0 20 16 1 25 -30z m1211 -83 c29
-30 31 -33 16 -50 -15 -17 -14 -17 4 -11 15 6 17 5 8 -7 -6 -8 -8 -25 -4 -39
8 -32 -9 -90 -25 -84 -7 3 -15 -4 -18 -16 -5 -18 -9 -20 -26 -10 -12 6 -25 8
-30 5 -15 -9 -42 7 -37 21 3 9 -2 14 -14 14 -11 0 -20 4 -20 10 0 5 -3 9 -7 9
-20 -3 -46 2 -40 8 4 3 2 12 -4 19 -7 9 -5 14 10 19 12 3 21 11 21 16 0 6 13
15 29 20 34 12 47 35 28 52 -6 7 -39 12 -72 12 -62 0 -140 28 -129 47 3 5 61
7 142 3 l137 -5 31 -33z m68 -3 c5 -14 4 -15 -9 -4 -17 14 -19 20 -6 20 5 0
12 -7 15 -16z m209 -88 c3 -7 0 -19 -6 -26 -9 -10 -9 -12 4 -7 9 3 16 0 16 -9
0 -7 -4 -11 -9 -8 -4 3 -8 0 -8 -5 0 -13 -10 -14 -30 -1 -13 8 -12 11 4 23 12
9 17 20 13 31 -4 9 -2 16 2 16 5 0 11 -6 14 -14z m43 -32 c-11 -28 5 -35 25
-12 l19 23 -17 -32 c-16 -29 -18 -30 -30 -13 -12 16 -9 50 4 50 3 0 2 -7 -1
-16z m624 12 c0 -2 -8 -10 -17 -17 -16 -13 -17 -12 -4 4 13 16 21 21 21 13z
m-672 -105 c3 -10 0 -10 -17 -2 -25 14 -27 20 -4 17 9 -2 19 -8 21 -15z m-818
-55 c0 -2 -11 -26 -24 -53 -48 -97 -58 -122 -52 -132 8 -13 -4 -42 -15 -35
-12 7 -11 97 2 131 15 40 89 114 89 89z m650 -45 c0 -13 -2 -13 -9 -2 -5 7
-14 11 -20 7 -7 -4 -9 -1 -5 8 7 19 34 9 34 -13z m995 -11 c3 -5 -3 -10 -14
-10 -13 0 -21 -7 -22 -17 0 -11 -2 -13 -6 -5 -12 30 25 59 42 32z m-1838 -102
c-3 -8 -6 -5 -6 6 -1 11 2 17 5 13 3 -3 4 -12 1 -19z m1498 -28 c3 -5 1 -10
-4 -10 -6 0 -11 5 -11 10 0 6 2 10 4 10 3 0 8 -4 11 -10z m70 -9 c-6 -5 -22
-13 -38 -16 -22 -6 -26 -4 -21 9 4 10 18 16 37 16 19 0 27 -4 22 -9z m-825
-55 c0 -2 -7 -7 -16 -10 -8 -3 -12 -2 -9 4 6 10 25 14 25 6z m9 -42 c5 4 12 2
15 -3 8 -13 -4 -42 -15 -35 -5 3 -7 10 -4 15 4 5 0 9 -8 9 -8 0 -18 7 -21 16
-5 14 -4 15 8 5 8 -7 20 -10 25 -7z m11 -64 c-20 -13 -43 -13 -35 0 3 6 16 10
28 10 18 0 19 -2 7 -10z m-1125 -80 c3 -5 -1 -10 -9 -10 -9 0 -16 5 -16 10 0
6 4 10 9 10 6 0 13 -4 16 -10z m629 -2 c-5 -8 -2 -9 10 -5 10 4 15 3 11 -3 -3
-6 -2 -10 2 -10 5 0 18 -7 29 -15 11 -10 1 -7 -24 5 -23 11 -40 25 -37 30 4 6
8 10 11 10 3 0 2 -5 -2 -12z m236 -58 l25 -20 -32 0 c-17 0 -35 5 -39 12 -5 8
-2 9 9 5 10 -3 17 -2 17 2 0 5 -6 12 -12 14 -7 3 -8 6 -3 6 6 0 21 -8 35 -19z
m291 -86 c-19 -8 -36 -12 -39 -9 -6 6 37 24 58 24 8 0 0 -6 -19 -15z"/>
<path d="M1084 1439 c0 -20 11 -25 20 -10 3 5 0 13 -7 19 -10 8 -13 6 -13 -9z"/>
<path d="M940 1335 c7 -8 17 -15 22 -15 6 0 5 7 -2 15 -7 8 -17 15 -22 15 -6
0 -5 -7 2 -15z"/>
<path d="M1960 1221 c0 -5 7 -14 15 -21 16 -14 18 -10 9 14 -6 17 -24 22 -24
7z"/>
<path d="M1408 913 c7 -3 16 -2 19 1 4 3 -2 6 -13 5 -11 0 -14 -3 -6 -6z"/>
<path d="M1250 876 c0 -2 7 -7 16 -10 8 -3 12 -2 9 4 -6 10 -25 14 -25 6z"/>
<path d="M1880 2535 c0 -8 2 -15 4 -15 2 0 6 7 10 15 3 8 1 15 -4 15 -6 0 -10
-7 -10 -15z"/>
<path d="M2180 2540 c0 -5 7 -7 15 -4 8 4 15 8 15 10 0 2 -7 4 -15 4 -8 0 -15
-4 -15 -10z"/>
<path d="M2310 2540 c0 -5 4 -10 9 -10 6 0 13 5 16 10 3 6 -1 10 -9 10 -9 0
-16 -4 -16 -10z"/>
<path d="M2413 2535 c4 -8 2 -17 -3 -20 -6 -4 -10 -11 -10 -16 0 -6 11 3 24
18 l25 28 -6 -25 c-5 -24 -5 -25 10 -5 14 17 16 17 17 4 0 -31 70 -11 70 20 0
7 -26 11 -66 11 -54 0 -65 -3 -61 -15z"/>
<path d="M46 2495 c4 -8 11 -15 16 -15 6 0 5 6 -2 15 -7 8 -14 15 -16 15 -2 0
-1 -7 2 -15z"/>
<path d="M2530 2489 c0 -5 5 -7 10 -4 6 3 10 8 10 11 0 2 -4 4 -10 4 -5 0 -10
-5 -10 -11z"/>
<path d="M2487 2483 c-2 -5 2 -23 8 -42 12 -33 13 -34 24 -14 6 12 11 26 11
32 0 13 -37 34 -43 24z"/>
<path d="M2402 2454 c-7 -8 -12 -20 -9 -27 2 -7 9 -2 16 11 15 28 11 36 -7 16z"/>
<path d="M130 2445 c0 -8 7 -15 16 -15 14 0 14 3 4 15 -7 8 -14 15 -16 15 -2
0 -4 -7 -4 -15z"/>
<path d="M95 2439 c-4 -6 1 -17 11 -24 29 -22 36 -18 18 10 -18 28 -20 29 -29
14z"/>
<path d="M2460 2430 c-12 -8 -11 -10 8 -10 12 0 22 5 22 10 0 13 -11 13 -30 0z"/>
<path d="M2295 2420 c-3 -5 1 -10 10 -10 9 0 13 5 10 10 -3 6 -8 10 -10 10 -2
0 -7 -4 -10 -10z"/>
<path d="M205 2410 c-3 -5 -1 -10 4 -10 6 0 11 5 11 10 0 6 -2 10 -4 10 -3 0
-8 -4 -11 -10z"/>
<path d="M2405 2410 c-4 -6 3 -10 14 -10 25 0 27 6 6 13 -8 4 -17 2 -20 -3z"/>
<path d="M76 2384 c-4 -15 -5 -28 -3 -30 7 -7 54 14 63 27 4 7 3 10 -3 6 -6
-4 -13 0 -17 8 -9 24 -33 17 -40 -11z"/>
<path d="M1928 2363 c6 -2 12 -10 12 -17 0 -7 7 -13 15 -13 8 0 15 2 15 4 0
10 -30 33 -42 32 -10 0 -10 -2 0 -6z"/>
<path d="M163 2350 c-13 -5 -23 -11 -23 -13 0 -2 10 -3 23 -1 12 1 28 3 35 3
7 1 10 6 7 11 -7 12 -13 12 -42 0z"/>
<path d="M220 2346 c0 -9 5 -16 10 -16 6 0 10 4 10 9 0 6 -4 13 -10 16 -5 3
-10 -1 -10 -9z"/>
<path d="M2080 2339 c0 -5 5 -7 10 -4 6 3 10 8 10 11 0 2 -4 4 -10 4 -5 0 -10
-5 -10 -11z"/>
<path d="M60 2325 c0 -5 5 -17 10 -25 5 -8 10 -10 10 -5 0 6 -5 17 -10 25 -5
8 -10 11 -10 5z"/>
<path d="M2245 2320 c-3 -5 -1 -10 4 -10 6 0 11 5 11 10 0 6 -2 10 -4 10 -3 0
-8 -4 -11 -10z"/>
<path d="M2045 2310 c-19 -8 -19 -9 3 -9 12 -1 22 4 22 9 0 6 -1 10 -2 9 -2 0
-12 -4 -23 -9z"/>
<path d="M0 2290 c0 -11 5 -20 10 -20 6 0 10 -5 10 -11 0 -5 -4 -7 -10 -4 -6
3 -10 -5 -10 -19 0 -26 25 -41 53 -30 22 8 17 64 -7 87 -25 23 -46 22 -46 -3z
m41 -43 c-10 -9 -11 -8 -5 6 3 10 9 15 12 12 3 -3 0 -11 -7 -18z"/>
<path d="M152 2294 c10 -10 20 -15 24 -12 3 4 -5 12 -18 18 -22 12 -22 12 -6
-6z"/>
<path d="M195 2280 c3 -5 13 -10 21 -10 17 0 17 -10 0 -32 -16 -21 -52 -24
-59 -4 -7 19 -57 8 -57 -12 0 -12 3 -13 12 -4 7 7 17 12 23 12 18 -1 -28 -30
-47 -30 -10 0 -18 -5 -18 -11 0 -5 5 -7 12 -3 8 5 9 2 5 -9 -6 -16 -5 -16 19
-1 14 10 24 13 23 8 -4 -22 2 -34 16 -34 8 0 15 -4 15 -8 0 -16 84 -45 136
-46 30 0 54 -4 54 -8 0 -5 -10 -8 -22 -8 -46 0 -66 -11 -61 -31 6 -23 -5 -24
-29 -2 -22 20 -76 22 -89 2 -11 -18 -11 -21 1 -39 9 -13 12 -13 25 3 7 11 11
25 9 32 -4 10 1 12 16 8 21 -6 21 -7 -8 -36 -20 -19 -36 -28 -47 -23 -9 3 -13
11 -9 17 4 8 -1 9 -17 5 -22 -6 -23 -6 -6 7 21 17 22 28 2 21 -8 -4 -15 -3
-15 0 0 8 52 30 63 27 5 -1 6 2 4 6 -3 5 -26 8 -51 8 -48 0 -58 8 -30 23 12 7
13 11 4 17 -6 4 -17 2 -23 -4 -15 -15 -27 -14 -27 4 0 8 -4 15 -10 15 -5 0 -6
-8 -3 -17 5 -12 2 -15 -10 -10 -9 3 -17 2 -17 -3 0 -6 7 -10 15 -10 8 0 15 -4
15 -10 0 -5 -7 -10 -15 -10 -8 0 -15 -4 -15 -9 0 -5 6 -9 12 -8 7 0 29 -1 48
-2 29 -1 32 -3 17 -12 -16 -9 -16 -12 -2 -26 9 -9 14 -21 11 -28 -3 -8 2 -11
14 -8 10 3 27 -4 40 -17 16 -16 29 -20 46 -16 19 5 30 1 44 -16 11 -13 19 -28
20 -35 0 -6 9 -15 20 -18 11 -3 20 -11 20 -16 0 -6 -9 -7 -20 -4 -16 5 -20 2
-20 -17 0 -17 -3 -20 -9 -9 -5 8 -7 20 -4 28 3 7 0 13 -7 13 -7 0 -10 7 -6 16
3 8 0 22 -8 30 -19 18 -27 18 -20 -1 4 -10 0 -15 -15 -15 -14 0 -19 5 -15 15
4 8 2 15 -3 15 -5 0 -9 -9 -10 -20 -1 -11 4 -20 11 -20 8 0 13 -13 14 -30 1
-30 -11 -40 -23 -20 -3 6 -12 10 -18 10 -8 0 -8 -3 1 -9 8 -4 19 -17 25 -28 7
-11 20 -32 30 -46 21 -29 14 -56 -9 -36 -11 9 -14 7 -14 -14 0 -42 17 -48 103
-38 14 2 7 32 -9 38 -13 5 -13 7 -2 14 9 6 7 9 -8 9 -25 0 -49 25 -58 60 -5
17 -4 21 2 11 6 -8 17 -11 27 -7 12 4 23 -1 32 -14 8 -12 21 -19 27 -17 9 4
12 -8 11 -42 -1 -26 -5 -52 -8 -58 -4 -6 2 -22 13 -34 l19 -24 -6 23 c-3 13
-1 22 6 22 6 0 11 7 11 15 0 8 9 15 20 15 11 0 19 -5 18 -12 -2 -6 6 -14 17
-16 26 -5 58 -40 52 -55 -3 -8 5 -14 19 -15 22 -2 23 1 14 18 -6 12 -7 20 -1
20 5 0 11 -6 14 -12 2 -7 7 -10 11 -6 4 3 3 16 -4 27 -9 18 -8 21 10 21 13 0
18 -4 14 -11 -11 -18 39 12 63 38 12 12 26 23 31 23 5 0 15 12 22 28 23 46 23
48 -3 17 -21 -25 -27 -27 -40 -16 -13 10 -14 16 -4 26 7 7 16 10 21 7 5 -3 6
2 3 12 -4 10 -7 22 -7 27 0 5 -6 9 -14 9 -8 0 -18 5 -21 10 -4 7 2 9 17 5 18
-5 25 -2 25 9 0 18 -20 21 -47 6 -15 -8 -17 -7 -12 12 4 17 2 20 -12 15 -13
-5 -15 -3 -7 12 12 22 3 35 -15 20 -9 -7 -19 -6 -33 3 -26 16 -27 28 -1 28 11
0 20 -5 20 -10 0 -7 6 -7 20 0 12 7 20 7 20 1 0 -5 5 -22 10 -36 9 -23 13 -25
25 -15 20 16 20 41 0 34 -8 -4 -15 -1 -15 5 0 6 5 11 11 11 6 0 3 8 -8 18 -10
9 -14 13 -7 9 8 -5 11 0 10 18 0 14 -7 25 -13 25 -15 0 -17 16 -3 25 6 3 10
11 10 18 0 6 -6 3 -14 -8 -8 -12 -25 -18 -47 -17 -18 0 -39 -4 -46 -10 -10 -8
-13 -6 -13 5 0 8 3 17 8 20 4 2 2 3 -4 1 -6 -1 -17 2 -25 7 -12 8 -12 11 1 20
11 7 12 12 3 15 -7 3 -9 12 -6 20 8 20 -27 18 -44 -3 -14 -17 -14 -17 -9 -1 7
22 -36 35 -67 21 -23 -11 -47 3 -47 27 0 6 -6 13 -13 16 -8 3 -14 11 -14 19 0
19 5 19 23 0 9 -8 21 -15 27 -15 8 0 9 3 1 8 -6 4 -18 21 -26 39 l-16 32 27
-5 c24 -5 27 -3 27 20 0 13 -4 22 -8 20 -4 -3 -8 -12 -8 -20 0 -12 -5 -11 -26
5 -27 22 -60 29 -49 11z m55 -272 c5 -13 9 -19 9 -15 1 4 11 3 22 -4 17 -9 23
-8 30 2 6 10 9 11 9 2 0 -16 -31 -53 -45 -53 -6 0 -17 9 -25 19 -7 11 -17 18
-21 16 -4 -3 -13 3 -20 12 -12 15 -11 16 9 11 24 -7 32 16 10 25 -10 4 -10 6
0 6 7 1 17 -9 22 -21z m185 -17 c3 -5 1 -12 -5 -16 -5 -3 -10 1 -10 9 0 18 6
21 15 7z m-65 -46 c0 -14 -4 -25 -9 -25 -5 0 -8 11 -7 25 1 33 16 33 16 0z
m44 -70 c3 -8 1 -15 -4 -15 -6 0 -10 7 -10 15 0 8 2 15 4 15 2 0 6 -7 10 -15z
m96 -34 c-6 -12 -16 -19 -21 -15 -6 4 -3 13 8 24 23 22 28 18 13 -9z m64 -110
c-5 -6 -54 48 -54 60 0 5 13 -5 29 -23 16 -18 28 -35 25 -37z m-81 36 c3 -8
-1 -14 -9 -14 -15 0 -18 9 -7 20 9 9 10 9 16 -6z m7 -40 c0 -7 -6 -21 -13 -32
-13 -16 -14 -15 -9 13 4 31 22 46 22 19z m80 -19 c0 -4 -9 -8 -19 -8 -11 0
-22 4 -25 8 -2 4 6 8 20 8 13 0 24 -4 24 -8z m-340 -8 c0 -5 -7 -7 -15 -4 -8
4 -15 8 -15 10 0 2 7 4 15 4 8 0 15 -4 15 -10z"/>
<path d="M75 2260 c-7 -12 2 -12 30 0 19 8 19 9 -2 9 -12 1 -25 -3 -28 -9z"/>
<path d="M162 2253 c5 -26 38 -29 38 -4 0 15 -6 21 -21 21 -14 0 -19 -5 -17
-17z"/>
<path d="M2502 2250 c-13 -21 -6 -26 15 -12 7 4 9 13 5 19 -6 9 -11 6 -20 -7z"/>
<path d="M2000 2250 c0 -5 5 -10 11 -10 5 0 7 5 4 10 -3 6 -8 10 -11 10 -2 0
-4 -4 -4 -10z"/>
<path d="M2421 2223 c-18 -19 -10 -25 12 -8 10 7 15 15 10 18 -4 3 -14 -2 -22
-10z"/>
<path d="M2531 2227 c-11 -14 -11 -17 0 -17 11 0 11 -2 -1 -9 -8 -6 -18 -7
-22 -5 -4 3 -8 1 -8 -5 0 -11 39 -26 46 -18 3 3 4 20 2 38 -3 29 -4 31 -17 16z"/>
<path d="M2435 2190 c-4 -6 -1 -10 6 -10 8 0 8 -4 -1 -15 -7 -9 -10 -18 -6
-22 3 -4 12 0 19 9 6 9 18 18 26 20 8 2 4 8 -13 16 -16 7 -28 8 -31 2z"/>
<path d="M45 2170 c-3 -5 -1 -10 4 -10 6 0 11 5 11 10 0 6 -2 10 -4 10 -3 0
-8 -4 -11 -10z"/>
<path d="M320 2150 c0 -5 5 -10 10 -10 6 0 10 5 10 10 0 6 -4 10 -10 10 -5 0
-10 -4 -10 -10z"/>
<path d="M363 2133 c9 -2 23 -2 30 0 6 3 -1 5 -18 5 -16 0 -22 -2 -12 -5z"/>
<path d="M440 2070 c0 -5 5 -10 11 -10 5 0 7 5 4 10 -3 6 -8 10 -11 10 -2 0
-4 -4 -4 -10z"/>
<path d="M21 1984 c0 -11 3 -14 6 -6 3 7 2 16 -1 19 -3 4 -6 -2 -5 -13z"/>
<path d="M56 1965 c-3 -8 0 -17 6 -21 6 -4 8 -3 4 4 -3 5 -1 12 6 14 8 3 9 6
1 11 -6 4 -13 0 -17 -8z"/>
<path d="M30 1940 c0 -5 5 -10 11 -10 5 0 7 5 4 10 -3 6 -8 10 -11 10 -2 0 -4
-4 -4 -10z"/>
<path d="M1296 1917 c3 -10 9 -15 12 -12 3 3 0 11 -7 18 -10 9 -11 8 -5 -6z"/>
<path d="M16 1913 c-11 -11 -6 -23 9 -23 8 0 15 4 15 9 0 13 -16 22 -24 14z"/>
<path d="M28 1863 c7 -3 16 -2 19 1 4 3 -2 6 -13 5 -11 0 -14 -3 -6 -6z"/>
<path d="M28 1833 c6 -2 10 -9 7 -13 -3 -5 -13 -6 -22 -3 -10 4 -14 2 -10 -4
9 -15 46 -23 53 -12 7 12 -14 39 -30 38 -7 0 -6 -2 2 -6z"/>
<path d="M623 1820 c-7 -11 -9 -21 -3 -25 9 -6 13 -1 23 28 9 23 -5 22 -20 -3z"/>
<path d="M222 1779 c2 -6 8 -10 13 -10 5 0 11 4 13 10 2 6 -4 11 -13 11 -9 0
-15 -5 -13 -11z"/>
<path d="M50 1770 c0 -5 7 -10 15 -10 8 0 15 5 15 10 0 6 -7 10 -15 10 -8 0
-15 -4 -15 -10z"/>
<path d="M165 1770 c-3 -5 1 -10 10 -10 9 0 13 5 10 10 -3 6 -8 10 -10 10 -2
0 -7 -4 -10 -10z"/>
<path d="M590 1760 c0 -5 5 -10 10 -10 6 0 10 5 10 10 0 6 -4 10 -10 10 -5 0
-10 -4 -10 -10z"/>
<path d="M2445 1740 c-3 -5 -1 -10 4 -10 6 0 11 5 11 10 0 6 -2 10 -4 10 -3 0
-8 -4 -11 -10z"/>
<path d="M238 1638 c9 -9 15 -9 24 0 9 9 7 12 -12 12 -19 0 -21 -3 -12 -12z"/>
<path d="M280 1499 c0 -5 4 -9 10 -9 5 0 7 -7 4 -15 -8 -19 1 -19 31 1 34 22
31 32 -10 32 -19 0 -35 -4 -35 -9z"/>
<path d="M601 1499 c-1 -9 -4 -30 -7 -46 -5 -28 -4 -30 20 -30 30 0 30 0 6 52
-10 22 -19 33 -19 24z"/>
<path d="M598 1382 c-8 -15 -13 -33 -11 -40 3 -9 -1 -12 -13 -10 -11 2 -19 -3
-20 -12 -2 -29 -5 -35 -12 -20 -6 12 -14 8 -40 -19 -18 -18 -26 -31 -17 -28 9
4 15 1 15 -8 0 -25 18 -17 43 20 13 20 42 55 64 78 37 39 39 45 24 54 -15 9
-21 6 -33 -15z"/>
<path d="M1680 1240 c-9 -6 -10 -10 -3 -10 6 0 15 5 18 10 8 12 4 12 -15 0z"/>
<path d="M1701 1214 c-13 -29 -6 -47 9 -24 9 14 14 50 7 50 -2 0 -9 -12 -16
-26z"/>
<path d="M1848 1228 c-16 -5 -28 -14 -28 -19 0 -15 27 -10 51 11 26 21 19 24
-23 8z"/>
<path d="M1657 1203 c3 -7 6 -13 8 -13 2 0 5 6 8 13 3 8 -1 14 -8 14 -7 0 -11
-6 -8 -14z"/>
<path d="M1567 1184 c3 -7 9 -14 14 -14 14 0 10 17 -5 23 -10 4 -13 1 -9 -9z"/>
<path d="M1605 1190 c3 -5 11 -10 16 -10 6 0 7 5 4 10 -3 6 -11 10 -16 10 -6
0 -7 -4 -4 -10z"/>
<path d="M340 1179 c11 -8 6 -9 -23 -7 -27 3 -36 1 -33 -9 3 -7 -2 -20 -11
-28 -8 -9 -12 -19 -8 -23 3 -4 11 1 16 9 5 9 21 20 36 24 40 10 60 45 26 45
-16 0 -16 -2 -3 -11z"/>
<path d="M1725 1179 c-4 -6 -5 -12 -2 -15 2 -3 7 2 10 11 7 17 1 20 -8 4z"/>
<path d="M1510 1151 c0 -15 4 -19 18 -14 14 6 15 4 5 -8 -12 -15 -12 -43 0
-55 4 -4 7 1 7 10 0 13 6 17 20 13 10 -3 24 1 31 9 9 11 9 14 0 14 -7 0 -9 5
-6 10 4 6 12 10 18 9 26 -3 37 2 37 16 0 18 -12 19 -28 3 -9 -9 -18 -9 -37 0
-16 7 -25 8 -25 1 0 -6 -7 -6 -20 1 -17 9 -20 8 -20 -9z"/>
<path d="M1670 1149 c0 -10 5 -21 12 -25 7 -4 8 -3 4 5 -4 6 -3 18 3 25 8 9 7
13 -4 13 -8 0 -15 -8 -15 -18z"/>
<path d="M0 1020 c0 -5 5 -10 10 -10 6 0 10 5 10 10 0 6 -4 10 -10 10 -5 0
-10 -4 -10 -10z"/>
<path d="M0 964 c0 -14 4 -23 9 -20 5 3 7 15 4 26 -7 28 -13 25 -13 -6z"/>
<path d="M124 978 c-7 -10 4 -28 17 -28 5 0 9 6 9 14 0 8 6 16 13 19 6 3 2 4
-11 4 -13 -1 -26 -5 -28 -9z"/>
<path d="M56 858 c5 -8 2 -9 -10 -5 -10 4 -15 3 -11 -3 3 -6 17 -10 31 -10 20
0 24 -5 24 -27 -1 -26 -1 -26 -12 -8 -11 19 -11 19 -19 0 -6 -18 -8 -18 -18 8
-17 42 -41 35 -41 -13 0 -23 5 -40 11 -40 6 0 9 7 5 15 -6 17 9 21 19 5 6 -10
49 -8 77 4 10 5 15 12 12 17 -3 5 -1 9 4 9 13 0 24 29 16 42 -4 6 -9 5 -14 -3
-7 -10 -11 -10 -24 0 -9 8 -16 10 -16 5 0 -4 -5 -3 -12 4 -15 15 -31 16 -22 0z"/>
<path d="M16 735 c-21 -32 -20 -55 2 -55 21 0 62 42 62 64 0 26 -45 20 -64 -9z"/>
<path d="M670 670 c-8 -5 -10 -10 -5 -10 6 0 17 5 25 10 8 5 11 10 5 10 -5 0
-17 -5 -25 -10z"/>
<path d="M435 659 c-4 -6 -5 -12 -2 -15 2 -3 7 2 10 11 7 17 1 20 -8 4z"/>
<path d="M0 646 c0 -9 7 -16 16 -16 17 0 14 22 -4 28 -7 2 -12 -3 -12 -12z"/>
<path d="M600 640 c-19 -11 -30 -19 -25 -19 6 0 26 8 45 19 19 11 31 19 25 19
-5 0 -26 -8 -45 -19z"/>
<path d="M28 388 c-29 -10 -38 -28 -15 -28 16 0 54 27 47 33 -3 2 -17 0 -32
-5z"/>
<path d="M470 369 c0 -5 5 -7 10 -4 6 3 10 8 10 11 0 2 -4 4 -10 4 -5 0 -10
-5 -10 -11z"/>
<path d="M420 355 c0 -8 2 -15 4 -15 2 0 6 7 10 15 3 8 1 15 -4 15 -6 0 -10
-7 -10 -15z"/>
<path d="M2492 250 c7 -11 16 -20 20 -20 5 0 3 9 -4 20 -7 11 -16 20 -20 20
-5 0 -3 -9 4 -20z"/>
<path d="M1580 51 c0 -6 4 -12 8 -15 5 -3 9 1 9 9 0 8 -4 15 -9 15 -4 0 -8 -4
-8 -9z"/>
</g>
</svg>
